# xmcd CD database file
# Copyright (C) 1995-1998 Ti Kan
#
# Track frame offsets:
#	150
#	22817
#	57018
#	88837
#	124888
#	156809
#	193309
#	258955
#
# Disc length: 4246 seconds
#
# Revision: 1
# Processed by: cddbd v1.4b41PL3 Copyright (c) Steve Scherf et al.
# Submitted via: CDex 1.40Beta1
#
DISCID=64109408
DTITLE=John Mayall and the Bluesbreakers - UK TOUR 2K
DYEAR=2001
DGENRE=Blues
TTITLE0=White Line Fever
TTITLE1=My Country Girl
TTITLE2=Hideaway
TTITLE3=A Hard Road
TTITLE4=Dancing Shoes
TTITLE5=Jacksboro Highway
TTITLE6=Padlock On The Blues
TTITLE7=Room To Move
EXTD=YEAR: 2001 ID3G:   0
EXTT0=
EXTT1=
EXTT2=
EXTT3=
EXTT4=
EXTT5=
EXTT6=
EXTT7=
PLAYORDER=
